<?xml version="1.0" standalone="no"?>
<!DOCTYPE svg PUBLIC "-//W3C//DTD SVG 20010904//EN"
 "http://www.w3.org/TR/2001/REC-SVG-20010904/DTD/svg10.dtd">
<svg version="1.0" xmlns="http://www.w3.org/2000/svg"
 width="95.000000pt" height="126.000000pt" viewBox="0 0 95.000000 126.000000"
 preserveAspectRatio="xMidYMid meet">
<metadata>
Created by potrace 1.16, written by Peter Selinger 2001-2019
</metadata>
<g transform="translate(0.000000,126.000000) scale(0.100000,-0.100000)"
fill="#000000" stroke="none">
<path d="M0 630 l0 -630 475 0 475 0 0 630 0 630 -475 0 -475 0 0 -630z m549
580 c90 -26 150 -131 236 -419 29 -96 35 -133 33 -197 l-1 -79 -6 66 c-7 73
-26 105 -117 195 -153 151 -316 124 -471 -78 -36 -47 -42 -62 -51 -133 l-11
-80 3 105 c3 96 8 118 55 260 52 153 103 263 144 309 27 29 93 60 127 61 14 0
41 -4 59 -10z m-261 -107 c-2 -5 -22 -46 -44 -93 -23 -47 -52 -114 -64 -150
-13 -36 -27 -69 -33 -75 -15 -16 6 188 28 278 7 26 6 27 -39 27 -35 0 -48 -5
-56 -19 -14 -26 -14 -735 0 -761 10 -19 27 -19 405 -20 217 0 401 3 410 6 13
5 15 54 15 394 0 429 5 400 -66 400 -19 0 -34 -3 -34 -7 0 -5 7 -43 15 -86 8
-43 15 -113 15 -155 l-1 -77 -47 125 c-26 69 -59 146 -74 173 l-27 47 113 0
c74 0 116 -4 124 -12 19 -19 17 -801 -2 -817 -9 -8 -134 -10 -442 -9 l-429 3
-3 405 c-1 223 0 411 3 417 3 10 37 13 121 13 63 0 114 -3 112 -7z m277 -382
c69 -45 99 -81 115 -139 10 -41 10 -43 -39 -116 -28 -41 -62 -83 -75 -94 -33
-25 -113 -27 -143 -3 -33 25 -123 162 -123 185 1 33 35 98 66 128 31 28 112
78 129 78 6 0 37 -18 70 -39z m-105 -531 c29 -29 27 -84 -6 -117 -22 -21 -32
-25 -66 -20 -22 3 -48 13 -57 21 -22 23 -20 89 3 115 26 29 98 29 126 1z m177
-6 c21 -21 24 -32 20 -61 -3 -19 -11 -41 -18 -49 -15 -18 -125 -20 -131 -2 -3
11 -3 106 1 131 1 4 24 7 51 7 41 0 56 -5 77 -26z"/>
</g>
</svg>
